<svg width="215" height="91" viewBox="0 0 215 91" fill="none" xmlns="http://www.w3.org/2000/svg">
<path d="M79.751 11.9893C79.751 12.8005 79.6895 13.5251 79.5664 14.1631C79.4434 14.8011 79.2497 15.3411 78.9854 15.7832C78.721 16.2253 78.3792 16.5625 77.96 16.7949C77.5407 17.0228 77.0371 17.1367 76.4492 17.1367C75.7064 17.1367 75.0911 16.9339 74.6035 16.5283C74.1204 16.1227 73.7581 15.5371 73.5166 14.7715C73.2796 14.0013 73.1611 13.0739 73.1611 11.9893C73.1611 10.9229 73.2682 10.0068 73.4824 9.24121C73.7012 8.47103 74.0521 7.88086 74.5352 7.4707C75.0182 7.05599 75.6562 6.84863 76.4492 6.84863C77.2012 6.84863 77.821 7.05371 78.3086 7.46387C78.7962 7.86947 79.1585 8.45736 79.3955 9.22754C79.6325 9.99316 79.751 10.9137 79.751 11.9893ZM74.3027 11.9893C74.3027 12.9189 74.3734 13.6937 74.5146 14.3135C74.6559 14.9333 74.8838 15.3981 75.1982 15.708C75.5173 16.0133 75.9342 16.166 76.4492 16.166C76.9642 16.166 77.3789 16.0133 77.6934 15.708C78.0124 15.4027 78.2425 14.9401 78.3838 14.3203C78.5296 13.7005 78.6025 12.9235 78.6025 11.9893C78.6025 11.0732 78.5319 10.3076 78.3906 9.69238C78.2493 9.07259 78.0215 8.60775 77.707 8.29785C77.3926 7.9834 76.9733 7.82617 76.4492 7.82617C75.9251 7.82617 75.5059 7.9834 75.1914 8.29785C74.877 8.60775 74.6491 9.07259 74.5078 9.69238C74.3711 10.3076 74.3027 11.0732 74.3027 11.9893ZM88.1417 11.2646C88.1417 11.8708 88.0984 12.4609 88.0118 13.0352C87.9298 13.6094 87.7862 14.1449 87.5811 14.6416C87.3806 15.1383 87.1072 15.5736 86.7608 15.9473C86.4145 16.321 85.9792 16.6149 85.4552 16.8291C84.9356 17.0387 84.3136 17.1436 83.5889 17.1436C83.393 17.1436 83.1697 17.1299 82.919 17.1025C82.6684 17.0798 82.4633 17.0456 82.3038 17V16.0156C82.4724 16.0749 82.6707 16.1227 82.8985 16.1592C83.1264 16.1911 83.3497 16.207 83.5684 16.207C84.4207 16.207 85.0906 16.0247 85.5782 15.6602C86.0658 15.291 86.4167 14.792 86.6309 14.1631C86.8451 13.5296 86.9659 12.8187 86.9932 12.0303H86.9112C86.7745 12.249 86.5945 12.4518 86.3712 12.6387C86.1524 12.821 85.8858 12.9691 85.5714 13.083C85.2569 13.1924 84.8901 13.2471 84.4708 13.2471C83.892 13.2471 83.3861 13.1286 82.9532 12.8916C82.5248 12.6546 82.1899 12.3105 81.9483 11.8594C81.7113 11.4082 81.5929 10.8636 81.5929 10.2256C81.5929 9.53743 81.7227 8.94271 81.9825 8.44141C82.2468 7.93555 82.616 7.5459 83.0899 7.27246C83.5639 6.99902 84.1221 6.8623 84.7647 6.8623C85.2569 6.8623 85.7081 6.95573 86.1182 7.14258C86.5284 7.32943 86.8839 7.6097 87.1846 7.9834C87.49 8.35254 87.7247 8.81055 87.8888 9.35742C88.0574 9.9043 88.1417 10.54 88.1417 11.2646ZM84.7647 7.82617C84.1586 7.82617 83.6664 8.02441 83.2882 8.4209C82.9145 8.81738 82.7276 9.41439 82.7276 10.2119C82.7276 10.8727 82.8894 11.3945 83.213 11.7773C83.5365 12.1602 84.0356 12.3516 84.71 12.3516C85.1749 12.3516 85.5759 12.2581 85.9132 12.0713C86.255 11.8844 86.517 11.6475 86.6993 11.3604C86.8861 11.0732 86.9796 10.7793 86.9796 10.4785C86.9796 10.1777 86.934 9.8724 86.8429 9.5625C86.7563 9.2526 86.6218 8.96777 86.4395 8.70801C86.2572 8.44368 86.0271 8.23177 85.7491 8.07227C85.4711 7.9082 85.143 7.82617 84.7647 7.82617ZM90.3459 16.2891C90.3459 15.9701 90.4233 15.7445 90.5783 15.6123C90.7332 15.4756 90.9224 15.4072 91.1457 15.4072C91.3781 15.4072 91.574 15.4756 91.7336 15.6123C91.8931 15.7445 91.9728 15.9701 91.9728 16.2891C91.9728 16.6035 91.8931 16.8337 91.7336 16.9795C91.574 17.1208 91.3781 17.1914 91.1457 17.1914C90.9224 17.1914 90.7332 17.1208 90.5783 16.9795C90.4233 16.8337 90.3459 16.6035 90.3459 16.2891ZM100.712 11.9893C100.712 12.8005 100.651 13.5251 100.528 14.1631C100.405 14.8011 100.211 15.3411 99.9465 15.7832C99.6822 16.2253 99.3404 16.5625 98.9211 16.7949C98.5019 17.0228 97.9983 17.1367 97.4104 17.1367C96.6676 17.1367 96.0523 16.9339 95.5647 16.5283C95.0816 16.1227 94.7193 15.5371 94.4778 14.7715C94.2408 14.0013 94.1223 13.0739 94.1223 11.9893C94.1223 10.9229 94.2294 10.0068 94.4436 9.24121C94.6623 8.47103 95.0133 7.88086 95.4963 7.4707C95.9794 7.05599 96.6174 6.84863 97.4104 6.84863C98.1623 6.84863 98.7821 7.05371 99.2698 7.46387C99.7574 7.86947 100.12 8.45736 100.357 9.22754C100.594 9.99316 100.712 10.9137 100.712 11.9893ZM95.2639 11.9893C95.2639 12.9189 95.3345 13.6937 95.4758 14.3135C95.6171 14.9333 95.845 15.3981 96.1594 15.708C96.4784 16.0133 96.8954 16.166 97.4104 16.166C97.9254 16.166 98.3401 16.0133 98.6545 15.708C98.9735 15.4027 99.2037 14.9401 99.345 14.3203C99.4908 13.7005 99.5637 12.9235 99.5637 11.9893C99.5637 11.0732 99.4931 10.3076 99.3518 9.69238C99.2105 9.07259 98.9827 8.60775 98.6682 8.29785C98.3538 7.9834 97.9345 7.82617 97.4104 7.82617C96.8863 7.82617 96.467 7.9834 96.1526 8.29785C95.8381 8.60775 95.6103 9.07259 95.469 9.69238C95.3323 10.3076 95.2639 11.0732 95.2639 11.9893ZM109.144 11.9893C109.144 12.8005 109.082 13.5251 108.959 14.1631C108.836 14.8011 108.643 15.3411 108.378 15.7832C108.114 16.2253 107.772 16.5625 107.353 16.7949C106.934 17.0228 106.43 17.1367 105.842 17.1367C105.099 17.1367 104.484 16.9339 103.996 16.5283C103.513 16.1227 103.151 15.5371 102.909 14.7715C102.673 14.0013 102.554 13.0739 102.554 11.9893C102.554 10.9229 102.661 10.0068 102.875 9.24121C103.094 8.47103 103.445 7.88086 103.928 7.4707C104.411 7.05599 105.049 6.84863 105.842 6.84863C106.594 6.84863 107.214 7.05371 107.701 7.46387C108.189 7.86947 108.551 8.45736 108.788 9.22754C109.025 9.99316 109.144 10.9137 109.144 11.9893ZM103.696 11.9893C103.696 12.9189 103.766 13.6937 103.908 14.3135C104.049 14.9333 104.277 15.3981 104.591 15.708C104.91 16.0133 105.327 16.166 105.842 16.166C106.357 16.166 106.772 16.0133 107.086 15.708C107.405 15.4027 107.635 14.9401 107.777 14.3203C107.923 13.7005 107.995 12.9235 107.995 11.9893C107.995 11.0732 107.925 10.3076 107.784 9.69238C107.642 9.07259 107.414 8.60775 107.1 8.29785C106.785 7.9834 106.366 7.82617 105.842 7.82617C105.318 7.82617 104.899 7.9834 104.584 8.29785C104.27 8.60775 104.042 9.07259 103.901 9.69238C103.764 10.3076 103.696 11.0732 103.696 11.9893ZM114.281 9.38477C115.174 9.38477 115.837 9.58529 116.27 9.98633C116.703 10.3874 116.919 11.0277 116.919 11.9072V17H116.092L115.873 15.8926H115.819C115.609 16.166 115.39 16.3962 115.162 16.583C114.935 16.7653 114.67 16.9043 114.37 17C114.073 17.0911 113.709 17.1367 113.276 17.1367C112.82 17.1367 112.414 17.057 112.059 16.8975C111.708 16.738 111.43 16.4964 111.225 16.1729C111.024 15.8493 110.924 15.4391 110.924 14.9424C110.924 14.195 111.22 13.6208 111.813 13.2197C112.405 12.8187 113.308 12.5999 114.52 12.5635L115.812 12.5088V12.0508C115.812 11.4036 115.673 10.9502 115.395 10.6904C115.117 10.4307 114.725 10.3008 114.219 10.3008C113.827 10.3008 113.454 10.3577 113.098 10.4717C112.743 10.5856 112.405 10.7201 112.086 10.875L111.738 10.0137C112.075 9.84049 112.462 9.69238 112.9 9.56934C113.337 9.44629 113.798 9.38477 114.281 9.38477ZM115.798 13.3086L114.657 13.3564C113.722 13.3929 113.064 13.5456 112.681 13.8145C112.298 14.0833 112.107 14.4639 112.107 14.9561C112.107 15.3844 112.237 15.7012 112.496 15.9062C112.756 16.1113 113.1 16.2139 113.529 16.2139C114.194 16.2139 114.739 16.0293 115.162 15.6602C115.586 15.291 115.798 14.7373 115.798 13.999V13.3086ZM127.812 9.37109C128.637 9.37109 129.259 9.58757 129.678 10.0205C130.097 10.4489 130.307 11.1393 130.307 12.0918V17H129.186V12.1465C129.186 11.5404 129.054 11.0869 128.79 10.7861C128.53 10.4808 128.142 10.3281 127.627 10.3281C126.903 10.3281 126.376 10.5378 126.048 10.957C125.72 11.3763 125.556 11.9938 125.556 12.8096V17H124.428V12.1465C124.428 11.7409 124.369 11.4036 124.25 11.1348C124.137 10.8659 123.963 10.6654 123.731 10.5332C123.503 10.3965 123.214 10.3281 122.863 10.3281C122.366 10.3281 121.967 10.4307 121.666 10.6357C121.366 10.8408 121.147 11.1462 121.01 11.5518C120.878 11.9528 120.812 12.4473 120.812 13.0352V17H119.677V9.50781H120.593L120.764 10.5674H120.826C120.976 10.3076 121.165 10.0889 121.393 9.91113C121.621 9.7334 121.876 9.59896 122.159 9.50781C122.441 9.41667 122.742 9.37109 123.061 9.37109C123.631 9.37109 124.107 9.47819 124.49 9.69238C124.877 9.90202 125.157 10.2233 125.331 10.6562H125.392C125.638 10.2233 125.975 9.90202 126.404 9.69238C126.832 9.47819 127.302 9.37109 127.812 9.37109ZM136.479 13.7461V12.7344H139.87V13.7461H136.479ZM149.822 17H148.715V9.91797C148.715 9.64909 148.715 9.41895 148.715 9.22754C148.719 9.03158 148.724 8.85384 148.728 8.69434C148.737 8.53027 148.749 8.36393 148.762 8.19531C148.621 8.34115 148.489 8.46647 148.366 8.57129C148.243 8.67155 148.09 8.79688 147.908 8.94727L146.766 9.86328L146.172 9.09082L148.879 7.00586H149.822V17ZM160.592 11.2646C160.592 11.8708 160.548 12.4609 160.462 13.0352C160.38 13.6094 160.236 14.1449 160.031 14.6416C159.831 15.1383 159.557 15.5736 159.211 15.9473C158.864 16.321 158.429 16.6149 157.905 16.8291C157.386 17.0387 156.764 17.1436 156.039 17.1436C155.843 17.1436 155.62 17.1299 155.369 17.1025C155.118 17.0798 154.913 17.0456 154.754 17V16.0156C154.922 16.0749 155.121 16.1227 155.349 16.1592C155.576 16.1911 155.8 16.207 156.018 16.207C156.871 16.207 157.541 16.0247 158.028 15.6602C158.516 15.291 158.867 14.792 159.081 14.1631C159.295 13.5296 159.416 12.8187 159.443 12.0303H159.361C159.224 12.249 159.044 12.4518 158.821 12.6387C158.602 12.821 158.336 12.9691 158.021 13.083C157.707 13.1924 157.34 13.2471 156.921 13.2471C156.342 13.2471 155.836 13.1286 155.403 12.8916C154.975 12.6546 154.64 12.3105 154.398 11.8594C154.161 11.4082 154.043 10.8636 154.043 10.2256C154.043 9.53743 154.173 8.94271 154.433 8.44141C154.697 7.93555 155.066 7.5459 155.54 7.27246C156.014 6.99902 156.572 6.8623 157.215 6.8623C157.707 6.8623 158.158 6.95573 158.568 7.14258C158.978 7.32943 159.334 7.6097 159.635 7.9834C159.94 8.35254 160.175 8.81055 160.339 9.35742C160.507 9.9043 160.592 10.54 160.592 11.2646ZM157.215 7.82617C156.609 7.82617 156.116 8.02441 155.738 8.4209C155.364 8.81738 155.178 9.41439 155.178 10.2119C155.178 10.8727 155.339 11.3945 155.663 11.7773C155.987 12.1602 156.486 12.3516 157.16 12.3516C157.625 12.3516 158.026 12.2581 158.363 12.0713C158.705 11.8844 158.967 11.6475 159.149 11.3604C159.336 11.0732 159.43 10.7793 159.43 10.4785C159.43 10.1777 159.384 9.8724 159.293 9.5625C159.206 9.2526 159.072 8.96777 158.89 8.70801C158.707 8.44368 158.477 8.23177 158.199 8.07227C157.921 7.9082 157.593 7.82617 157.215 7.82617ZM162.796 16.2891C162.796 15.9701 162.873 15.7445 163.028 15.6123C163.183 15.4756 163.372 15.4072 163.596 15.4072C163.828 15.4072 164.024 15.4756 164.184 15.6123C164.343 15.7445 164.423 15.9701 164.423 16.2891C164.423 16.6035 164.343 16.8337 164.184 16.9795C164.024 17.1208 163.828 17.1914 163.596 17.1914C163.372 17.1914 163.183 17.1208 163.028 16.9795C162.873 16.8337 162.796 16.6035 162.796 16.2891ZM173.162 11.9893C173.162 12.8005 173.101 13.5251 172.978 14.1631C172.855 14.8011 172.661 15.3411 172.397 15.7832C172.132 16.2253 171.79 16.5625 171.371 16.7949C170.952 17.0228 170.448 17.1367 169.86 17.1367C169.118 17.1367 168.502 16.9339 168.015 16.5283C167.532 16.1227 167.169 15.5371 166.928 14.7715C166.691 14.0013 166.572 13.0739 166.572 11.9893C166.572 10.9229 166.679 10.0068 166.894 9.24121C167.112 8.47103 167.463 7.88086 167.946 7.4707C168.429 7.05599 169.067 6.84863 169.86 6.84863C170.612 6.84863 171.232 7.05371 171.72 7.46387C172.207 7.86947 172.57 8.45736 172.807 9.22754C173.044 9.99316 173.162 10.9137 173.162 11.9893ZM167.714 11.9893C167.714 12.9189 167.785 13.6937 167.926 14.3135C168.067 14.9333 168.295 15.3981 168.609 15.708C168.928 16.0133 169.345 16.166 169.86 16.166C170.375 16.166 170.79 16.0133 171.105 15.708C171.424 15.4027 171.654 14.9401 171.795 14.3203C171.941 13.7005 172.014 12.9235 172.014 11.9893C172.014 11.0732 171.943 10.3076 171.802 9.69238C171.661 9.07259 171.433 8.60775 171.118 8.29785C170.804 7.9834 170.384 7.82617 169.86 7.82617C169.336 7.82617 168.917 7.9834 168.603 8.29785C168.288 8.60775 168.06 9.07259 167.919 9.69238C167.782 10.3076 167.714 11.0732 167.714 11.9893ZM181.594 11.9893C181.594 12.8005 181.532 13.5251 181.409 14.1631C181.286 14.8011 181.093 15.3411 180.828 15.7832C180.564 16.2253 180.222 16.5625 179.803 16.7949C179.384 17.0228 178.88 17.1367 178.292 17.1367C177.549 17.1367 176.934 16.9339 176.446 16.5283C175.963 16.1227 175.601 15.5371 175.359 14.7715C175.123 14.0013 175.004 13.0739 175.004 11.9893C175.004 10.9229 175.111 10.0068 175.325 9.24121C175.544 8.47103 175.895 7.88086 176.378 7.4707C176.861 7.05599 177.499 6.84863 178.292 6.84863C179.044 6.84863 179.664 7.05371 180.151 7.46387C180.639 7.86947 181.001 8.45736 181.238 9.22754C181.475 9.99316 181.594 10.9137 181.594 11.9893ZM176.146 11.9893C176.146 12.9189 176.216 13.6937 176.358 14.3135C176.499 14.9333 176.727 15.3981 177.041 15.708C177.36 16.0133 177.777 16.166 178.292 16.166C178.807 16.166 179.222 16.0133 179.536 15.708C179.855 15.4027 180.085 14.9401 180.227 14.3203C180.373 13.7005 180.445 12.9235 180.445 11.9893C180.445 11.0732 180.375 10.3076 180.234 9.69238C180.092 9.07259 179.864 8.60775 179.55 8.29785C179.235 7.9834 178.816 7.82617 178.292 7.82617C177.768 7.82617 177.349 7.9834 177.034 8.29785C176.72 8.60775 176.492 9.07259 176.351 9.69238C176.214 10.3076 176.146 11.0732 176.146 11.9893ZM187.448 9.37109C188.383 9.37109 189.128 9.69238 189.684 10.335C190.24 10.9775 190.518 11.9437 190.518 13.2334C190.518 14.0856 190.39 14.8011 190.135 15.3799C189.88 15.9587 189.52 16.3962 189.055 16.6924C188.595 16.9886 188.05 17.1367 187.421 17.1367C187.025 17.1367 186.676 17.0843 186.375 16.9795C186.074 16.8747 185.817 16.7334 185.603 16.5557C185.389 16.3779 185.211 16.1842 185.07 15.9746H184.988C185.001 16.1523 185.017 16.3665 185.035 16.6172C185.058 16.8678 185.07 17.0866 185.07 17.2734V20.3496H183.928V9.50781H184.864L185.015 10.6152H185.07C185.215 10.3874 185.393 10.18 185.603 9.99316C185.812 9.80176 186.068 9.65137 186.368 9.54199C186.674 9.42806 187.034 9.37109 187.448 9.37109ZM187.25 10.3281C186.731 10.3281 186.311 10.4284 185.992 10.6289C185.678 10.8294 185.448 11.1302 185.302 11.5312C185.156 11.9277 185.079 12.4268 185.07 13.0283V13.2471C185.07 13.8805 185.138 14.416 185.275 14.8535C185.416 15.291 185.646 15.6237 185.965 15.8516C186.289 16.0794 186.722 16.1934 187.264 16.1934C187.729 16.1934 188.116 16.068 188.426 15.8174C188.736 15.5667 188.966 15.2181 189.116 14.7715C189.271 14.3203 189.349 13.8031 189.349 13.2197C189.349 12.3356 189.176 11.6338 188.829 11.1143C188.488 10.5902 187.961 10.3281 187.25 10.3281ZM201.055 9.37109C201.88 9.37109 202.502 9.58757 202.921 10.0205C203.34 10.4489 203.55 11.1393 203.55 12.0918V17H202.429V12.1465C202.429 11.5404 202.297 11.0869 202.033 10.7861C201.773 10.4808 201.385 10.3281 200.87 10.3281C200.146 10.3281 199.619 10.5378 199.291 10.957C198.963 11.3763 198.799 11.9938 198.799 12.8096V17H197.671V12.1465C197.671 11.7409 197.612 11.4036 197.493 11.1348C197.38 10.8659 197.206 10.6654 196.974 10.5332C196.746 10.3965 196.457 10.3281 196.106 10.3281C195.609 10.3281 195.21 10.4307 194.909 10.6357C194.609 10.8408 194.39 11.1462 194.253 11.5518C194.121 11.9528 194.055 12.4473 194.055 13.0352V17H192.92V9.50781H193.836L194.007 10.5674H194.069C194.219 10.3076 194.408 10.0889 194.636 9.91113C194.864 9.7334 195.119 9.59896 195.402 9.50781C195.684 9.41667 195.985 9.37109 196.304 9.37109C196.874 9.37109 197.35 9.47819 197.733 9.69238C198.12 9.90202 198.4 10.2233 198.574 10.6562H198.635C198.881 10.2233 199.218 9.90202 199.647 9.69238C200.075 9.47819 200.545 9.37109 201.055 9.37109Z" fill="white"/>
<path d="M77.3721 52H76.2646V44.918C76.2646 44.6491 76.2646 44.4189 76.2646 44.2275C76.2692 44.0316 76.2738 43.8538 76.2783 43.6943C76.2874 43.5303 76.2988 43.3639 76.3125 43.1953C76.1712 43.3411 76.0391 43.4665 75.916 43.5713C75.793 43.6715 75.6403 43.7969 75.458 43.9473L74.3164 44.8633L73.7217 44.0908L76.4287 42.0059H77.3721V52ZM88.1827 46.9893C88.1827 47.8005 88.1212 48.5251 87.9981 49.1631C87.8751 49.8011 87.6814 50.3411 87.4171 50.7832C87.1527 51.2253 86.811 51.5625 86.3917 51.7949C85.9724 52.0228 85.4688 52.1367 84.8809 52.1367C84.1381 52.1367 83.5229 51.9339 83.0352 51.5283C82.5522 51.1227 82.1899 50.5371 81.9483 49.7715C81.7113 49.0013 81.5929 48.0739 81.5929 46.9893C81.5929 45.9229 81.6999 45.0068 81.9141 44.2412C82.1329 43.471 82.4838 42.8809 82.9669 42.4707C83.4499 42.056 84.088 41.8486 84.8809 41.8486C85.6329 41.8486 86.2527 42.0537 86.7403 42.4639C87.2279 42.8695 87.5902 43.4574 87.8272 44.2275C88.0642 44.9932 88.1827 45.9137 88.1827 46.9893ZM82.7345 46.9893C82.7345 47.9189 82.8051 48.6937 82.9464 49.3135C83.0876 49.9333 83.3155 50.3981 83.63 50.708C83.949 51.0133 84.366 51.166 84.8809 51.166C85.3959 51.166 85.8106 51.0133 86.1251 50.708C86.4441 50.4027 86.6742 49.9401 86.8155 49.3203C86.9613 48.7005 87.0343 47.9235 87.0343 46.9893C87.0343 46.0732 86.9636 45.3076 86.8223 44.6924C86.6811 44.0726 86.4532 43.6077 86.1388 43.2979C85.8243 42.9834 85.405 42.8262 84.8809 42.8262C84.3568 42.8262 83.9376 42.9834 83.6231 43.2979C83.3087 43.6077 83.0808 44.0726 82.9395 44.6924C82.8028 45.3076 82.7345 46.0732 82.7345 46.9893ZM90.3459 51.2891C90.3459 50.9701 90.4233 50.7445 90.5783 50.6123C90.7332 50.4756 90.9224 50.4072 91.1457 50.4072C91.3781 50.4072 91.574 50.4756 91.7336 50.6123C91.8931 50.7445 91.9728 50.9701 91.9728 51.2891C91.9728 51.6035 91.8931 51.8337 91.7336 51.9795C91.574 52.1208 91.3781 52.1914 91.1457 52.1914C90.9224 52.1914 90.7332 52.1208 90.5783 51.9795C90.4233 51.8337 90.3459 51.6035 90.3459 51.2891ZM100.712 46.9893C100.712 47.8005 100.651 48.5251 100.528 49.1631C100.405 49.8011 100.211 50.3411 99.9465 50.7832C99.6822 51.2253 99.3404 51.5625 98.9211 51.7949C98.5019 52.0228 97.9983 52.1367 97.4104 52.1367C96.6676 52.1367 96.0523 51.9339 95.5647 51.5283C95.0816 51.1227 94.7193 50.5371 94.4778 49.7715C94.2408 49.0013 94.1223 48.0739 94.1223 46.9893C94.1223 45.9229 94.2294 45.0068 94.4436 44.2412C94.6623 43.471 95.0133 42.8809 95.4963 42.4707C95.9794 42.056 96.6174 41.8486 97.4104 41.8486C98.1623 41.8486 98.7821 42.0537 99.2698 42.4639C99.7574 42.8695 100.12 43.4574 100.357 44.2275C100.594 44.9932 100.712 45.9137 100.712 46.9893ZM95.2639 46.9893C95.2639 47.9189 95.3345 48.6937 95.4758 49.3135C95.6171 49.9333 95.845 50.3981 96.1594 50.708C96.4784 51.0133 96.8954 51.166 97.4104 51.166C97.9254 51.166 98.3401 51.0133 98.6545 50.708C98.9735 50.4027 99.2037 49.9401 99.345 49.3203C99.4908 48.7005 99.5637 47.9235 99.5637 46.9893C99.5637 46.0732 99.4931 45.3076 99.3518 44.6924C99.2105 44.0726 98.9827 43.6077 98.6682 43.2979C98.3538 42.9834 97.9345 42.8262 97.4104 42.8262C96.8863 42.8262 96.467 42.9834 96.1526 43.2979C95.8381 43.6077 95.6103 44.0726 95.469 44.6924C95.3323 45.3076 95.2639 46.0732 95.2639 46.9893ZM109.144 46.9893C109.144 47.8005 109.082 48.5251 108.959 49.1631C108.836 49.8011 108.643 50.3411 108.378 50.7832C108.114 51.2253 107.772 51.5625 107.353 51.7949C106.934 52.0228 106.43 52.1367 105.842 52.1367C105.099 52.1367 104.484 51.9339 103.996 51.5283C103.513 51.1227 103.151 50.5371 102.909 49.7715C102.673 49.0013 102.554 48.0739 102.554 46.9893C102.554 45.9229 102.661 45.0068 102.875 44.2412C103.094 43.471 103.445 42.8809 103.928 42.4707C104.411 42.056 105.049 41.8486 105.842 41.8486C106.594 41.8486 107.214 42.0537 107.701 42.4639C108.189 42.8695 108.551 43.4574 108.788 44.2275C109.025 44.9932 109.144 45.9137 109.144 46.9893ZM103.696 46.9893C103.696 47.9189 103.766 48.6937 103.908 49.3135C104.049 49.9333 104.277 50.3981 104.591 50.708C104.91 51.0133 105.327 51.166 105.842 51.166C106.357 51.166 106.772 51.0133 107.086 50.708C107.405 50.4027 107.635 49.9401 107.777 49.3203C107.923 48.7005 107.995 47.9235 107.995 46.9893C107.995 46.0732 107.925 45.3076 107.784 44.6924C107.642 44.0726 107.414 43.6077 107.1 43.2979C106.785 42.9834 106.366 42.8262 105.842 42.8262C105.318 42.8262 104.899 42.9834 104.584 43.2979C104.27 43.6077 104.042 44.0726 103.901 44.6924C103.764 45.3076 103.696 46.0732 103.696 46.9893ZM114.281 44.3848C115.174 44.3848 115.837 44.5853 116.27 44.9863C116.703 45.3874 116.919 46.0277 116.919 46.9072V52H116.092L115.873 50.8926H115.819C115.609 51.166 115.39 51.3962 115.162 51.583C114.935 51.7653 114.67 51.9043 114.37 52C114.073 52.0911 113.709 52.1367 113.276 52.1367C112.82 52.1367 112.414 52.057 112.059 51.8975C111.708 51.738 111.43 51.4964 111.225 51.1729C111.024 50.8493 110.924 50.4391 110.924 49.9424C110.924 49.195 111.22 48.6208 111.813 48.2197C112.405 47.8187 113.308 47.5999 114.52 47.5635L115.812 47.5088V47.0508C115.812 46.4036 115.673 45.9502 115.395 45.6904C115.117 45.4307 114.725 45.3008 114.219 45.3008C113.827 45.3008 113.454 45.3577 113.098 45.4717C112.743 45.5856 112.405 45.7201 112.086 45.875L111.738 45.0137C112.075 44.8405 112.462 44.6924 112.9 44.5693C113.337 44.4463 113.798 44.3848 114.281 44.3848ZM115.798 48.3086L114.657 48.3564C113.722 48.3929 113.064 48.5456 112.681 48.8145C112.298 49.0833 112.107 49.4639 112.107 49.9561C112.107 50.3844 112.237 50.7012 112.496 50.9062C112.756 51.1113 113.1 51.2139 113.529 51.2139C114.194 51.2139 114.739 51.0293 115.162 50.6602C115.586 50.291 115.798 49.7373 115.798 48.999V48.3086ZM127.812 44.3711C128.637 44.3711 129.259 44.5876 129.678 45.0205C130.097 45.4489 130.307 46.1393 130.307 47.0918V52H129.186V47.1465C129.186 46.5404 129.054 46.0869 128.79 45.7861C128.53 45.4808 128.142 45.3281 127.627 45.3281C126.903 45.3281 126.376 45.5378 126.048 45.957C125.72 46.3763 125.556 46.9938 125.556 47.8096V52H124.428V47.1465C124.428 46.7409 124.369 46.4036 124.25 46.1348C124.137 45.8659 123.963 45.6654 123.731 45.5332C123.503 45.3965 123.214 45.3281 122.863 45.3281C122.366 45.3281 121.967 45.4307 121.666 45.6357C121.366 45.8408 121.147 46.1462 121.01 46.5518C120.878 46.9528 120.812 47.4473 120.812 48.0352V52H119.677V44.5078H120.593L120.764 45.5674H120.826C120.976 45.3076 121.165 45.0889 121.393 44.9111C121.621 44.7334 121.876 44.599 122.159 44.5078C122.441 44.4167 122.742 44.3711 123.061 44.3711C123.631 44.3711 124.107 44.4782 124.49 44.6924C124.877 44.902 125.157 45.2233 125.331 45.6562H125.392C125.638 45.2233 125.975 44.902 126.404 44.6924C126.832 44.4782 127.302 44.3711 127.812 44.3711ZM136.479 48.7461V47.7344H139.87V48.7461H136.479ZM149.822 52H148.715V44.918C148.715 44.6491 148.715 44.4189 148.715 44.2275C148.719 44.0316 148.724 43.8538 148.728 43.6943C148.737 43.5303 148.749 43.3639 148.762 43.1953C148.621 43.3411 148.489 43.4665 148.366 43.5713C148.243 43.6715 148.09 43.7969 147.908 43.9473L146.766 44.8633L146.172 44.0908L148.879 42.0059H149.822V52ZM157.331 41.8623C157.91 41.8623 158.422 41.9535 158.869 42.1357C159.316 42.318 159.664 42.5869 159.915 42.9424C160.17 43.2933 160.298 43.7262 160.298 44.2412C160.298 44.6468 160.209 45.0023 160.031 45.3076C159.858 45.6084 159.623 45.8727 159.327 46.1006C159.031 46.3239 158.703 46.5244 158.343 46.7021C158.771 46.8981 159.156 47.1191 159.498 47.3652C159.844 47.6113 160.118 47.9007 160.318 48.2334C160.519 48.5661 160.619 48.9603 160.619 49.416C160.619 49.9766 160.482 50.4619 160.209 50.8721C159.94 51.2777 159.562 51.5898 159.074 51.8086C158.586 52.0273 158.015 52.1367 157.358 52.1367C156.652 52.1367 156.05 52.0319 155.554 51.8223C155.061 51.6081 154.685 51.3027 154.426 50.9062C154.17 50.5052 154.043 50.0244 154.043 49.4639C154.043 49.0036 154.141 48.6048 154.337 48.2676C154.533 47.9258 154.793 47.6318 155.116 47.3857C155.44 47.1396 155.793 46.9323 156.176 46.7637C155.843 46.5814 155.538 46.374 155.26 46.1416C154.986 45.9092 154.767 45.638 154.603 45.3281C154.444 45.0137 154.364 44.6491 154.364 44.2344C154.364 43.7285 154.492 43.3001 154.747 42.9492C155.007 42.5938 155.36 42.3249 155.807 42.1426C156.258 41.9557 156.766 41.8623 157.331 41.8623ZM155.157 49.4707C155.157 49.9811 155.337 50.4027 155.697 50.7354C156.057 51.0635 156.602 51.2275 157.331 51.2275C158.024 51.2275 158.559 51.0635 158.937 50.7354C159.316 50.4027 159.505 49.9674 159.505 49.4297C159.505 49.097 159.418 48.8053 159.245 48.5547C159.072 48.2995 158.826 48.0716 158.507 47.8711C158.188 47.6706 157.812 47.4883 157.379 47.3242L157.133 47.2354C156.713 47.4085 156.356 47.6022 156.059 47.8164C155.768 48.026 155.544 48.2653 155.39 48.5342C155.235 48.8031 155.157 49.1152 155.157 49.4707ZM157.317 42.792C156.78 42.792 156.34 42.9219 155.998 43.1816C155.656 43.4368 155.485 43.806 155.485 44.2891C155.485 44.6354 155.567 44.9294 155.731 45.1709C155.9 45.4079 156.128 45.613 156.415 45.7861C156.702 45.9548 157.023 46.112 157.379 46.2578C157.725 46.112 158.033 45.9525 158.302 45.7793C158.571 45.6016 158.782 45.3919 158.937 45.1504C159.092 44.9089 159.17 44.6195 159.17 44.2822C159.17 43.7992 158.999 43.43 158.657 43.1748C158.32 42.9196 157.873 42.792 157.317 42.792ZM162.796 51.2891C162.796 50.9701 162.873 50.7445 163.028 50.6123C163.183 50.4756 163.372 50.4072 163.596 50.4072C163.828 50.4072 164.024 50.4756 164.184 50.6123C164.343 50.7445 164.423 50.9701 164.423 51.2891C164.423 51.6035 164.343 51.8337 164.184 51.9795C164.024 52.1208 163.828 52.1914 163.596 52.1914C163.372 52.1914 163.183 52.1208 163.028 51.9795C162.873 51.8337 162.796 51.6035 162.796 51.2891ZM173.162 46.9893C173.162 47.8005 173.101 48.5251 172.978 49.1631C172.855 49.8011 172.661 50.3411 172.397 50.7832C172.132 51.2253 171.79 51.5625 171.371 51.7949C170.952 52.0228 170.448 52.1367 169.86 52.1367C169.118 52.1367 168.502 51.9339 168.015 51.5283C167.532 51.1227 167.169 50.5371 166.928 49.7715C166.691 49.0013 166.572 48.0739 166.572 46.9893C166.572 45.9229 166.679 45.0068 166.894 44.2412C167.112 43.471 167.463 42.8809 167.946 42.4707C168.429 42.056 169.067 41.8486 169.86 41.8486C170.612 41.8486 171.232 42.0537 171.72 42.4639C172.207 42.8695 172.57 43.4574 172.807 44.2275C173.044 44.9932 173.162 45.9137 173.162 46.9893ZM167.714 46.9893C167.714 47.9189 167.785 48.6937 167.926 49.3135C168.067 49.9333 168.295 50.3981 168.609 50.708C168.928 51.0133 169.345 51.166 169.86 51.166C170.375 51.166 170.79 51.0133 171.105 50.708C171.424 50.4027 171.654 49.9401 171.795 49.3203C171.941 48.7005 172.014 47.9235 172.014 46.9893C172.014 46.0732 171.943 45.3076 171.802 44.6924C171.661 44.0726 171.433 43.6077 171.118 43.2979C170.804 42.9834 170.384 42.8262 169.86 42.8262C169.336 42.8262 168.917 42.9834 168.603 43.2979C168.288 43.6077 168.06 44.0726 167.919 44.6924C167.782 45.3076 167.714 46.0732 167.714 46.9893ZM181.594 46.9893C181.594 47.8005 181.532 48.5251 181.409 49.1631C181.286 49.8011 181.093 50.3411 180.828 50.7832C180.564 51.2253 180.222 51.5625 179.803 51.7949C179.384 52.0228 178.88 52.1367 178.292 52.1367C177.549 52.1367 176.934 51.9339 176.446 51.5283C175.963 51.1227 175.601 50.5371 175.359 49.7715C175.123 49.0013 175.004 48.0739 175.004 46.9893C175.004 45.9229 175.111 45.0068 175.325 44.2412C175.544 43.471 175.895 42.8809 176.378 42.4707C176.861 42.056 177.499 41.8486 178.292 41.8486C179.044 41.8486 179.664 42.0537 180.151 42.4639C180.639 42.8695 181.001 43.4574 181.238 44.2275C181.475 44.9932 181.594 45.9137 181.594 46.9893ZM176.146 46.9893C176.146 47.9189 176.216 48.6937 176.358 49.3135C176.499 49.9333 176.727 50.3981 177.041 50.708C177.36 51.0133 177.777 51.166 178.292 51.166C178.807 51.166 179.222 51.0133 179.536 50.708C179.855 50.4027 180.085 49.9401 180.227 49.3203C180.373 48.7005 180.445 47.9235 180.445 46.9893C180.445 46.0732 180.375 45.3076 180.234 44.6924C180.092 44.0726 179.864 43.6077 179.55 43.2979C179.235 42.9834 178.816 42.8262 178.292 42.8262C177.768 42.8262 177.349 42.9834 177.034 43.2979C176.72 43.6077 176.492 44.0726 176.351 44.6924C176.214 45.3076 176.146 46.0732 176.146 46.9893ZM187.448 44.3711C188.383 44.3711 189.128 44.6924 189.684 45.335C190.24 45.9775 190.518 46.9437 190.518 48.2334C190.518 49.0856 190.39 49.8011 190.135 50.3799C189.88 50.9587 189.52 51.3962 189.055 51.6924C188.595 51.9886 188.05 52.1367 187.421 52.1367C187.025 52.1367 186.676 52.0843 186.375 51.9795C186.074 51.8747 185.817 51.7334 185.603 51.5557C185.389 51.3779 185.211 51.1842 185.07 50.9746H184.988C185.001 51.1523 185.017 51.3665 185.035 51.6172C185.058 51.8678 185.07 52.0866 185.07 52.2734V55.3496H183.928V44.5078H184.864L185.015 45.6152H185.07C185.215 45.3874 185.393 45.18 185.603 44.9932C185.812 44.8018 186.068 44.6514 186.368 44.542C186.674 44.4281 187.034 44.3711 187.448 44.3711ZM187.25 45.3281C186.731 45.3281 186.311 45.4284 185.992 45.6289C185.678 45.8294 185.448 46.1302 185.302 46.5312C185.156 46.9277 185.079 47.4268 185.07 48.0283V48.2471C185.07 48.8805 185.138 49.416 185.275 49.8535C185.416 50.291 185.646 50.6237 185.965 50.8516C186.289 51.0794 186.722 51.1934 187.264 51.1934C187.729 51.1934 188.116 51.068 188.426 50.8174C188.736 50.5667 188.966 50.2181 189.116 49.7715C189.271 49.3203 189.349 48.8031 189.349 48.2197C189.349 47.3356 189.176 46.6338 188.829 46.1143C188.488 45.5902 187.961 45.3281 187.25 45.3281ZM201.055 44.3711C201.88 44.3711 202.502 44.5876 202.921 45.0205C203.34 45.4489 203.55 46.1393 203.55 47.0918V52H202.429V47.1465C202.429 46.5404 202.297 46.0869 202.033 45.7861C201.773 45.4808 201.385 45.3281 200.87 45.3281C200.146 45.3281 199.619 45.5378 199.291 45.957C198.963 46.3763 198.799 46.9938 198.799 47.8096V52H197.671V47.1465C197.671 46.7409 197.612 46.4036 197.493 46.1348C197.38 45.8659 197.206 45.6654 196.974 45.5332C196.746 45.3965 196.457 45.3281 196.106 45.3281C195.609 45.3281 195.21 45.4307 194.909 45.6357C194.609 45.8408 194.39 46.1462 194.253 46.5518C194.121 46.9528 194.055 47.4473 194.055 48.0352V52H192.92V44.5078H193.836L194.007 45.5674H194.069C194.219 45.3076 194.408 45.0889 194.636 44.9111C194.864 44.7334 195.119 44.599 195.402 44.5078C195.684 44.4167 195.985 44.3711 196.304 44.3711C196.874 44.3711 197.35 44.4782 197.733 44.6924C198.12 44.902 198.4 45.2233 198.574 45.6562H198.635C198.881 45.2233 199.218 44.902 199.647 44.6924C200.075 44.4782 200.545 44.3711 201.055 44.3711Z" fill="white"/>
<path d="M85.1787 76.0059L82.5059 86H81.3369L79.3545 79.2734C79.2952 79.082 79.2383 78.8906 79.1836 78.6992C79.1335 78.5033 79.0856 78.3187 79.04 78.1455C78.9945 77.9678 78.9557 77.8128 78.9238 77.6807C78.8965 77.5439 78.876 77.4414 78.8623 77.373C78.8532 77.4414 78.835 77.5417 78.8076 77.6738C78.7848 77.806 78.7529 77.9587 78.7119 78.1318C78.6755 78.305 78.6299 78.4896 78.5752 78.6855C78.5251 78.8815 78.4704 79.0798 78.4111 79.2803L76.4834 86H75.3145L72.6621 76.0059H73.8721L75.4785 82.2744C75.5332 82.484 75.5833 82.6914 75.6289 82.8965C75.679 83.097 75.7223 83.293 75.7588 83.4844C75.7998 83.6758 75.8363 83.8626 75.8682 84.0449C75.9001 84.2272 75.9297 84.4049 75.957 84.5781C75.9798 84.4004 76.0094 84.2158 76.0459 84.0244C76.0824 83.8285 76.1211 83.6302 76.1621 83.4297C76.2077 83.2292 76.2555 83.0264 76.3057 82.8213C76.3604 82.6162 76.4173 82.4111 76.4766 82.2061L78.2744 76.0059H79.4707L81.3438 82.2539C81.4076 82.4681 81.4668 82.68 81.5215 82.8896C81.5762 83.0993 81.624 83.3044 81.665 83.5049C81.7106 83.7008 81.7493 83.89 81.7812 84.0723C81.8177 84.25 81.8496 84.4186 81.877 84.5781C81.9089 84.3548 81.9476 84.1201 81.9932 83.874C82.0387 83.6279 82.0911 83.3704 82.1504 83.1016C82.2142 82.8327 82.2826 82.5547 82.3555 82.2676L83.9619 76.0059H85.1787ZM89.8917 78.3711C90.5297 78.3711 91.0766 78.5124 91.5323 78.7949C91.988 79.0775 92.3367 79.474 92.5782 79.9844C92.8197 80.4902 92.9405 81.0827 92.9405 81.7617V82.4658H87.7657C87.7794 83.3454 87.9981 84.0153 88.422 84.4756C88.8458 84.9359 89.4428 85.166 90.213 85.166C90.6869 85.166 91.1062 85.1227 91.4708 85.0361C91.8354 84.9495 92.2136 84.8219 92.6055 84.6533V85.6514C92.2273 85.82 91.8513 85.943 91.4776 86.0205C91.1085 86.098 90.671 86.1367 90.1651 86.1367C89.4451 86.1367 88.8162 85.9909 88.2784 85.6992C87.7452 85.403 87.3305 84.9701 87.0343 84.4004C86.738 83.8307 86.5899 83.1335 86.5899 82.3086C86.5899 81.502 86.7244 80.8047 86.9932 80.2168C87.2667 79.6243 87.6495 79.1686 88.1417 78.8496C88.6384 78.5306 89.2218 78.3711 89.8917 78.3711ZM89.878 79.3008C89.2719 79.3008 88.7888 79.499 88.4288 79.8955C88.0688 80.292 87.8546 80.8457 87.7862 81.5566H91.7511C91.7465 81.11 91.6759 80.7181 91.5391 80.3809C91.407 80.0391 91.2042 79.7747 90.9307 79.5879C90.6573 79.3965 90.3064 79.3008 89.878 79.3008ZM102.148 78.3848C103.041 78.3848 103.704 78.5853 104.137 78.9863C104.57 79.3874 104.786 80.0277 104.786 80.9072V86H103.959L103.74 84.8926H103.686C103.476 85.166 103.257 85.3962 103.03 85.583C102.802 85.7653 102.537 85.9043 102.237 86C101.94 86.0911 101.576 86.1367 101.143 86.1367C100.687 86.1367 100.281 86.057 99.926 85.8975C99.5751 85.738 99.2971 85.4964 99.092 85.1729C98.8915 84.8493 98.7913 84.4391 98.7913 83.9424C98.7913 83.195 99.0875 82.6208 99.6799 82.2197C100.272 81.8187 101.175 81.5999 102.387 81.5635L103.679 81.5088V81.0508C103.679 80.4036 103.54 79.9502 103.262 79.6904C102.984 79.4307 102.592 79.3008 102.086 79.3008C101.694 79.3008 101.321 79.3577 100.965 79.4717C100.61 79.5856 100.272 79.7201 99.9534 79.875L99.6047 79.0137C99.942 78.8405 100.329 78.6924 100.767 78.5693C101.204 78.4463 101.665 78.3848 102.148 78.3848ZM103.665 82.3086L102.524 82.3564C101.589 82.3929 100.931 82.5456 100.548 82.8145C100.165 83.0833 99.9739 83.4639 99.9739 83.9561C99.9739 84.3844 100.104 84.7012 100.364 84.9062C100.623 85.1113 100.967 85.2139 101.396 85.2139C102.061 85.2139 102.606 85.0293 103.03 84.6602C103.453 84.291 103.665 83.7373 103.665 82.999V82.3086ZM110.949 78.3711C111.099 78.3711 111.256 78.3802 111.42 78.3984C111.584 78.4121 111.73 78.4326 111.858 78.46L111.714 79.5127C111.591 79.4808 111.454 79.4557 111.304 79.4375C111.154 79.4193 111.012 79.4102 110.88 79.4102C110.579 79.4102 110.295 79.4717 110.026 79.5947C109.761 79.7132 109.529 79.8864 109.328 80.1143C109.128 80.3376 108.971 80.6087 108.857 80.9277C108.743 81.2422 108.686 81.5931 108.686 81.9805V86H107.544V78.5078H108.488L108.611 79.8887H108.659C108.813 79.6107 109 79.3577 109.219 79.1299C109.438 78.8975 109.691 78.7129 109.978 78.5762C110.27 78.4395 110.593 78.3711 110.949 78.3711ZM116.578 78.3711C117.216 78.3711 117.762 78.5124 118.218 78.7949C118.674 79.0775 119.023 79.474 119.264 79.9844C119.506 80.4902 119.626 81.0827 119.626 81.7617V82.4658H114.452C114.465 83.3454 114.684 84.0153 115.108 84.4756C115.532 84.9359 116.129 85.166 116.899 85.166C117.373 85.166 117.792 85.1227 118.157 85.0361C118.521 84.9495 118.899 84.8219 119.291 84.6533V85.6514C118.913 85.82 118.537 85.943 118.163 86.0205C117.794 86.098 117.357 86.1367 116.851 86.1367C116.131 86.1367 115.502 85.9909 114.964 85.6992C114.431 85.403 114.016 84.9701 113.72 84.4004C113.424 83.8307 113.276 83.1335 113.276 82.3086C113.276 81.502 113.41 80.8047 113.679 80.2168C113.953 79.6243 114.335 79.1686 114.828 78.8496C115.324 78.5306 115.908 78.3711 116.578 78.3711ZM116.564 79.3008C115.958 79.3008 115.475 79.499 115.115 79.8955C114.755 80.292 114.54 80.8457 114.472 81.5566H118.437C118.432 81.11 118.362 80.7181 118.225 80.3809C118.093 80.0391 117.89 79.7747 117.617 79.5879C117.343 79.3965 116.992 79.3008 116.564 79.3008ZM130.474 76.8877C129.923 76.8877 129.426 76.9834 128.984 77.1748C128.546 77.3617 128.173 77.6351 127.863 77.9951C127.558 78.3506 127.323 78.7812 127.159 79.2871C126.995 79.793 126.913 80.3626 126.913 80.9961C126.913 81.8346 127.043 82.5638 127.302 83.1836C127.567 83.7988 127.959 84.2751 128.478 84.6123C129.002 84.9495 129.656 85.1182 130.44 85.1182C130.887 85.1182 131.306 85.0817 131.698 85.0088C132.094 84.9313 132.479 84.8356 132.853 84.7217V85.7334C132.489 85.8701 132.106 85.9704 131.705 86.0342C131.304 86.1025 130.827 86.1367 130.276 86.1367C129.26 86.1367 128.41 85.9271 127.726 85.5078C127.047 85.084 126.537 84.487 126.195 83.7168C125.858 82.9466 125.689 82.0374 125.689 80.9893C125.689 80.2327 125.794 79.5423 126.003 78.918C126.218 78.2891 126.528 77.7467 126.933 77.291C127.343 76.8353 127.845 76.4844 128.437 76.2383C129.034 75.9876 129.718 75.8623 130.488 75.8623C130.994 75.8623 131.481 75.9124 131.951 76.0127C132.42 76.113 132.844 76.2565 133.222 76.4434L132.757 77.4277C132.438 77.2819 132.087 77.1566 131.705 77.0518C131.326 76.9424 130.916 76.8877 130.474 76.8877ZM136.411 86H135.269V75.3633H136.411V86ZM145.69 82.2402C145.69 82.8555 145.61 83.4046 145.451 83.8877C145.291 84.3708 145.061 84.7786 144.76 85.1113C144.46 85.444 144.095 85.6992 143.667 85.877C143.243 86.0501 142.762 86.1367 142.224 86.1367C141.723 86.1367 141.263 86.0501 140.843 85.877C140.429 85.6992 140.069 85.444 139.763 85.1113C139.463 84.7786 139.228 84.3708 139.059 83.8877C138.895 83.4046 138.813 82.8555 138.813 82.2402C138.813 81.4199 138.952 80.7227 139.23 80.1484C139.508 79.5697 139.905 79.1299 140.42 78.8291C140.939 78.5238 141.557 78.3711 142.272 78.3711C142.956 78.3711 143.553 78.5238 144.063 78.8291C144.578 79.1344 144.977 79.5765 145.259 80.1553C145.547 80.7295 145.69 81.4245 145.69 82.2402ZM139.989 82.2402C139.989 82.8418 140.069 83.3636 140.228 83.8057C140.388 84.2477 140.634 84.5895 140.967 84.8311C141.299 85.0726 141.728 85.1934 142.252 85.1934C142.771 85.1934 143.197 85.0726 143.53 84.8311C143.867 84.5895 144.116 84.2477 144.275 83.8057C144.435 83.3636 144.514 82.8418 144.514 82.2402C144.514 81.6432 144.435 81.1283 144.275 80.6953C144.116 80.2578 143.87 79.9206 143.537 79.6836C143.204 79.4466 142.773 79.3281 142.245 79.3281C141.466 79.3281 140.894 79.5856 140.529 80.1006C140.169 80.6156 139.989 81.3288 139.989 82.2402ZM152.919 83.9492C152.919 84.4277 152.798 84.8311 152.556 85.1592C152.319 85.4827 151.978 85.7266 151.531 85.8906C151.089 86.0547 150.56 86.1367 149.945 86.1367C149.421 86.1367 148.968 86.0957 148.585 86.0137C148.202 85.9316 147.867 85.8154 147.58 85.665V84.6191C147.885 84.7695 148.25 84.9062 148.674 85.0293C149.097 85.1523 149.53 85.2139 149.972 85.2139C150.62 85.2139 151.089 85.109 151.381 84.8994C151.672 84.6898 151.818 84.4049 151.818 84.0449C151.818 83.8398 151.759 83.6598 151.64 83.5049C151.526 83.3454 151.333 83.1927 151.059 83.0469C150.786 82.8965 150.408 82.7324 149.925 82.5547C149.446 82.3724 149.031 82.1924 148.68 82.0146C148.334 81.8324 148.065 81.6113 147.874 81.3516C147.687 81.0918 147.594 80.7546 147.594 80.3398C147.594 79.7064 147.849 79.221 148.359 78.8838C148.874 78.542 149.549 78.3711 150.383 78.3711C150.834 78.3711 151.255 78.4167 151.647 78.5078C152.044 78.5944 152.413 78.7129 152.755 78.8633L152.372 79.7725C152.062 79.6403 151.732 79.5286 151.381 79.4375C151.03 79.3464 150.672 79.3008 150.307 79.3008C149.783 79.3008 149.38 79.3874 149.097 79.5605C148.819 79.7337 148.68 79.9707 148.68 80.2715C148.68 80.5039 148.744 80.6953 148.872 80.8457C149.004 80.9961 149.214 81.1374 149.501 81.2695C149.788 81.4017 150.166 81.5566 150.636 81.7344C151.105 81.9076 151.511 82.0876 151.852 82.2744C152.194 82.4567 152.456 82.68 152.638 82.9443C152.825 83.2041 152.919 83.5391 152.919 83.9492ZM158.049 78.3711C158.687 78.3711 159.234 78.5124 159.689 78.7949C160.145 79.0775 160.494 79.474 160.735 79.9844C160.977 80.4902 161.098 81.0827 161.098 81.7617V82.4658H155.923C155.936 83.3454 156.155 84.0153 156.579 84.4756C157.003 84.9359 157.6 85.166 158.37 85.166C158.844 85.166 159.263 85.1227 159.628 85.0361C159.992 84.9495 160.371 84.8219 160.763 84.6533V85.6514C160.384 85.82 160.008 85.943 159.635 86.0205C159.266 86.098 158.828 86.1367 158.322 86.1367C157.602 86.1367 156.973 85.9909 156.435 85.6992C155.902 85.403 155.488 84.9701 155.191 84.4004C154.895 83.8307 154.747 83.1335 154.747 82.3086C154.747 81.502 154.881 80.8047 155.15 80.2168C155.424 79.6243 155.807 79.1686 156.299 78.8496C156.795 78.5306 157.379 78.3711 158.049 78.3711ZM158.035 79.3008C157.429 79.3008 156.946 79.499 156.586 79.8955C156.226 80.292 156.012 80.8457 155.943 81.5566H159.908C159.904 81.11 159.833 80.7181 159.696 80.3809C159.564 80.0391 159.361 79.7747 159.088 79.5879C158.814 79.3965 158.463 79.3008 158.035 79.3008ZM166.111 86.1367C165.163 86.1367 164.411 85.8132 163.855 85.166C163.304 84.5189 163.028 83.5573 163.028 82.2812C163.028 80.9915 163.311 80.0186 163.876 79.3623C164.441 78.7015 165.193 78.3711 166.132 78.3711C166.528 78.3711 166.875 78.4235 167.171 78.5283C167.467 78.6331 167.722 78.7744 167.936 78.9521C168.151 79.1253 168.331 79.3236 168.477 79.5469H168.559C168.54 79.4056 168.522 79.2119 168.504 78.9658C168.486 78.7197 168.477 78.5192 168.477 78.3643V75.3633H169.611V86H168.695L168.524 84.9336H168.477C168.335 85.1569 168.155 85.3597 167.936 85.542C167.722 85.7243 167.465 85.8701 167.164 85.9795C166.868 86.0843 166.517 86.1367 166.111 86.1367ZM166.289 85.1934C167.091 85.1934 167.658 84.9655 167.991 84.5098C168.324 84.054 168.49 83.3773 168.49 82.4795V82.2744C168.49 81.3219 168.331 80.5905 168.012 80.0801C167.697 79.5697 167.123 79.3145 166.289 79.3145C165.592 79.3145 165.07 79.5833 164.724 80.1211C164.377 80.6543 164.204 81.3835 164.204 82.3086C164.204 83.2292 164.375 83.9401 164.717 84.4414C165.063 84.9427 165.587 85.1934 166.289 85.1934Z" fill="white"/>
<path d="M5.62598 17L2.74805 8.65332H2.68652C2.7002 8.84017 2.71615 9.09538 2.73438 9.41895C2.7526 9.74251 2.76855 10.0889 2.78223 10.458C2.7959 10.8271 2.80273 11.1803 2.80273 11.5176V17H1.3125V7.00586H3.61621L6.38477 14.9834H6.42578L9.29004 7.00586H11.5869V17H10.0215V11.4355C10.0215 11.1302 10.026 10.7998 10.0352 10.4443C10.0488 10.0889 10.0625 9.75163 10.0762 9.43262C10.0944 9.11361 10.1081 8.8584 10.1172 8.66699H10.0625L7.0752 17H5.62598ZM21.1739 13.1992C21.1739 13.8281 21.0919 14.3864 20.9278 14.874C20.7638 15.3617 20.5245 15.7741 20.21 16.1113C19.8956 16.444 19.5173 16.6992 19.0753 16.877C18.6332 17.0501 18.1342 17.1367 17.5782 17.1367C17.0587 17.1367 16.5824 17.0501 16.1495 16.877C15.7165 16.6992 15.3406 16.444 15.0216 16.1113C14.7071 15.7741 14.4633 15.3617 14.2901 14.874C14.1169 14.3864 14.0304 13.8281 14.0304 13.1992C14.0304 12.3652 14.1739 11.6589 14.461 11.0801C14.7527 10.4967 15.1674 10.0524 15.7052 9.74707C16.2429 9.44173 16.8832 9.28906 17.6261 9.28906C18.3233 9.28906 18.9386 9.44173 19.4718 9.74707C20.005 10.0524 20.422 10.4967 20.7227 11.0801C21.0235 11.6634 21.1739 12.3698 21.1739 13.1992ZM15.6846 13.1992C15.6846 13.7507 15.7507 14.2223 15.8829 14.6143C16.0196 15.0062 16.2292 15.307 16.5118 15.5166C16.7943 15.7217 17.1589 15.8242 17.6055 15.8242C18.0522 15.8242 18.4167 15.7217 18.6993 15.5166C18.9818 15.307 19.1892 15.0062 19.3214 14.6143C19.4535 14.2223 19.5196 13.7507 19.5196 13.1992C19.5196 12.6478 19.4535 12.1807 19.3214 11.7979C19.1892 11.4105 18.9818 11.1165 18.6993 10.916C18.4167 10.7109 18.0499 10.6084 17.5987 10.6084C16.9333 10.6084 16.448 10.8317 16.1427 11.2783C15.8373 11.7249 15.6846 12.3652 15.6846 13.1992ZM27.3839 9.28906C28.2362 9.28906 28.8992 9.51009 29.3732 9.95215C29.8517 10.3896 30.091 11.0938 30.091 12.0645V17H28.4845V12.3652C28.4845 11.7773 28.3638 11.3376 28.1222 11.0459C27.8807 10.7497 27.507 10.6016 27.0011 10.6016C26.2674 10.6016 25.757 10.8271 25.4699 11.2783C25.1873 11.7295 25.0461 12.3835 25.0461 13.2402V17H23.4396V9.43262H24.6906L24.9162 10.458H25.005C25.1691 10.1937 25.3719 9.97721 25.6134 9.80859C25.8595 9.63542 26.133 9.50553 26.4338 9.41895C26.7391 9.33236 27.0558 9.28906 27.3839 9.28906ZM32.1038 13.9238V12.5635H35.6311V13.9238H32.1038ZM39.4827 17H37.8558V7.00586H43.5023V8.38672H39.4827V11.5039H43.2425V12.8779H39.4827V17ZM49.4115 9.28906C49.5391 9.28906 49.6781 9.2959 49.8285 9.30957C49.9789 9.32324 50.1088 9.34147 50.2182 9.36426L50.0678 10.8682C49.9721 10.8408 49.8536 10.8203 49.7123 10.8066C49.5756 10.793 49.4525 10.7861 49.3432 10.7861C49.0561 10.7861 48.7826 10.834 48.5229 10.9297C48.2631 11.0208 48.0329 11.1621 47.8324 11.3535C47.6319 11.5404 47.4747 11.7751 47.3607 12.0576C47.2468 12.3402 47.1898 12.6683 47.1898 13.042V17H45.5766V9.43262H46.8344L47.0531 10.7656H47.1283C47.2787 10.4967 47.4656 10.2507 47.6889 10.0273C47.9122 9.80404 48.1674 9.6263 48.4545 9.49414C48.7462 9.35742 49.0652 9.28906 49.4115 9.28906ZM53.646 9.43262V17H52.0395V9.43262H53.646ZM52.853 6.53418C53.0991 6.53418 53.311 6.60026 53.4888 6.73242C53.671 6.86458 53.7622 7.09245 53.7622 7.41602C53.7622 7.73503 53.671 7.96289 53.4888 8.09961C53.311 8.23177 53.0991 8.29785 52.853 8.29785C52.5978 8.29785 52.3813 8.23177 52.2036 8.09961C52.0304 7.96289 51.9438 7.73503 51.9438 7.41602C51.9438 7.09245 52.0304 6.86458 52.2036 6.73242C52.3813 6.60026 52.5978 6.53418 52.853 6.53418ZM64.2507 16.1523C64.2507 15.7786 64.3464 15.5166 64.5378 15.3662C64.7338 15.2113 64.9708 15.1338 65.2487 15.1338C65.5267 15.1338 65.7637 15.2113 65.9597 15.3662C66.1602 15.5166 66.2605 15.7786 66.2605 16.1523C66.2605 16.5169 66.1602 16.7812 65.9597 16.9453C65.7637 17.1048 65.5267 17.1846 65.2487 17.1846C64.9708 17.1846 64.7338 17.1048 64.5378 16.9453C64.3464 16.7812 64.2507 16.5169 64.2507 16.1523ZM64.2507 10.3008C64.2507 9.92253 64.3464 9.65592 64.5378 9.50098C64.7338 9.34603 64.9708 9.26855 65.2487 9.26855C65.5267 9.26855 65.7637 9.34603 65.9597 9.50098C66.1602 9.65592 66.2605 9.92253 66.2605 10.3008C66.2605 10.6608 66.1602 10.9229 65.9597 11.0869C65.7637 11.2464 65.5267 11.3262 65.2487 11.3262C64.9708 11.3262 64.7338 11.2464 64.5378 11.0869C64.3464 10.9229 64.2507 10.6608 64.2507 10.3008Z" fill="#335E74"/>
<path d="M7.27832 49.2793C7.27832 49.8717 7.13249 50.3822 6.84082 50.8105C6.55371 51.2389 6.139 51.5671 5.59668 51.7949C5.05892 52.0228 4.41634 52.1367 3.66895 52.1367C3.30436 52.1367 2.95573 52.1162 2.62305 52.0752C2.29036 52.0342 1.97591 51.9749 1.67969 51.8975C1.38802 51.8154 1.12142 51.7174 0.879883 51.6035V50.0586C1.28548 50.2363 1.73893 50.3981 2.24023 50.5439C2.74154 50.6852 3.25195 50.7559 3.77148 50.7559C4.19531 50.7559 4.54622 50.7012 4.82422 50.5918C5.10677 50.4779 5.31641 50.3184 5.45312 50.1133C5.58984 49.9036 5.6582 49.6598 5.6582 49.3818C5.6582 49.0856 5.57845 48.835 5.41895 48.6299C5.25944 48.4248 5.0179 48.238 4.69434 48.0693C4.37533 47.8962 3.97428 47.7116 3.49121 47.5156C3.16309 47.3835 2.84863 47.2331 2.54785 47.0645C2.25163 46.8958 1.9873 46.6976 1.75488 46.4697C1.52246 46.2419 1.33789 45.973 1.20117 45.6631C1.06901 45.3486 1.00293 44.9795 1.00293 44.5557C1.00293 43.9906 1.13737 43.5075 1.40625 43.1064C1.67969 42.7054 2.0625 42.3978 2.55469 42.1836C3.05143 41.9694 3.63021 41.8623 4.29102 41.8623C4.8151 41.8623 5.30729 41.917 5.76758 42.0264C6.23242 42.1357 6.68815 42.2907 7.13477 42.4912L6.61523 43.8105C6.20508 43.6419 5.80632 43.5075 5.41895 43.4072C5.03613 43.307 4.64421 43.2568 4.24316 43.2568C3.89681 43.2568 3.60286 43.3092 3.36133 43.4141C3.11979 43.5189 2.93522 43.667 2.80762 43.8584C2.68457 44.0452 2.62305 44.2686 2.62305 44.5283C2.62305 44.82 2.69368 45.0661 2.83496 45.2666C2.98079 45.4626 3.2041 45.6426 3.50488 45.8066C3.81022 45.9707 4.20215 46.153 4.68066 46.3535C5.2321 46.5814 5.69922 46.8206 6.08203 47.0713C6.4694 47.3219 6.76562 47.6227 6.9707 47.9736C7.17578 48.32 7.27832 48.7552 7.27832 49.2793ZM12.4288 44.2891C13.3858 44.2891 14.1082 44.501 14.5958 44.9248C15.088 45.3486 15.3341 46.0094 15.3341 46.9072V52H14.1925L13.8848 50.9268H13.8302C13.616 51.2002 13.3949 51.4258 13.1671 51.6035C12.9392 51.7812 12.6749 51.9134 12.3741 52C12.0779 52.0911 11.7156 52.1367 11.2872 52.1367C10.836 52.1367 10.4327 52.0547 10.0772 51.8906C9.72176 51.722 9.44148 51.4668 9.23641 51.125C9.03133 50.7832 8.92879 50.3503 8.92879 49.8262C8.92879 49.0469 9.21818 48.4613 9.79695 48.0693C10.3803 47.6774 11.2598 47.4609 12.4356 47.4199L13.7481 47.3721V46.9756C13.7481 46.4515 13.6251 46.0778 13.379 45.8545C13.1374 45.6312 12.7957 45.5195 12.3536 45.5195C11.9753 45.5195 11.6085 45.5742 11.253 45.6836C10.8975 45.793 10.5512 45.9274 10.2139 46.0869L9.69441 44.9521C10.0636 44.7562 10.4828 44.5967 10.9522 44.4736C11.4262 44.3506 11.9184 44.2891 12.4288 44.2891ZM13.7413 48.3838L12.7638 48.418C11.9617 48.4453 11.3988 48.582 11.0753 48.8281C10.7517 49.0742 10.5899 49.4115 10.5899 49.8398C10.5899 50.2135 10.7016 50.487 10.9249 50.6602C11.1482 50.8288 11.4421 50.9131 11.8067 50.9131C12.3627 50.9131 12.823 50.7559 13.1876 50.4414C13.5567 50.1224 13.7413 49.6553 13.7413 49.04V48.3838ZM20.8195 50.8379C21.0291 50.8379 21.2365 50.8197 21.4416 50.7832C21.6466 50.7422 21.8335 50.6943 22.0021 50.6396V51.8564C21.8244 51.9339 21.5942 52 21.3117 52.0547C21.0291 52.1094 20.7352 52.1367 20.4298 52.1367C20.0015 52.1367 19.6164 52.0661 19.2746 51.9248C18.9328 51.779 18.6616 51.5306 18.4611 51.1797C18.2606 50.8288 18.1603 50.3434 18.1603 49.7236V45.6562H17.1281V44.9385L18.2355 44.3711L18.7619 42.751H19.7736V44.4326H21.9406V45.6562H19.7736V49.7031C19.7736 50.0859 19.8693 50.3708 20.0607 50.5576C20.2521 50.7445 20.505 50.8379 20.8195 50.8379ZM30.5569 44.4326V52H29.2922L29.0735 50.9814H28.9846C28.8251 51.2412 28.6223 51.4577 28.3762 51.6309C28.1301 51.7995 27.8567 51.9248 27.5559 52.0068C27.2551 52.0934 26.9384 52.1367 26.6057 52.1367C26.036 52.1367 25.5484 52.041 25.1428 51.8496C24.7418 51.6536 24.4342 51.3529 24.22 50.9473C24.0058 50.5417 23.8987 50.0176 23.8987 49.375V44.4326H25.512V49.0742C25.512 49.6621 25.6304 50.1019 25.8674 50.3936C26.109 50.6852 26.4827 50.8311 26.9885 50.8311C27.4761 50.8311 27.8635 50.7308 28.1506 50.5303C28.4377 50.3298 28.6405 50.0335 28.759 49.6416C28.8821 49.2497 28.9436 48.7689 28.9436 48.1992V44.4326H30.5569ZM37.1155 44.2891C37.2432 44.2891 37.3821 44.2959 37.5325 44.3096C37.6829 44.3232 37.8128 44.3415 37.9222 44.3643L37.7718 45.8682C37.6761 45.8408 37.5576 45.8203 37.4163 45.8066C37.2796 45.793 37.1566 45.7861 37.0472 45.7861C36.7601 45.7861 36.4866 45.834 36.2269 45.9297C35.9671 46.0208 35.737 46.1621 35.5364 46.3535C35.3359 46.5404 35.1787 46.7751 35.0648 47.0576C34.9508 47.3402 34.8939 47.6683 34.8939 48.042V52H33.2806V44.4326H34.5384L34.7571 45.7656H34.8323C34.9827 45.4967 35.1696 45.2507 35.3929 45.0273C35.6162 44.804 35.8714 44.6263 36.1585 44.4941C36.4502 44.3574 36.7692 44.2891 37.1155 44.2891ZM42.2865 52.1367C41.3842 52.1367 40.6596 51.8086 40.1127 51.1523C39.5704 50.4915 39.2992 49.5186 39.2992 48.2334C39.2992 46.9346 39.5749 45.9525 40.1264 45.2871C40.6824 44.6217 41.4138 44.2891 42.3207 44.2891C42.7035 44.2891 43.0385 44.3415 43.3256 44.4463C43.6127 44.5465 43.8588 44.6833 44.0639 44.8564C44.2735 45.0296 44.4512 45.2233 44.5971 45.4375H44.6723C44.6495 45.2962 44.6221 45.0934 44.5902 44.8291C44.5629 44.5602 44.5492 44.3118 44.5492 44.084V41.3633H46.1625V52H44.9047L44.6176 50.9678H44.5492C44.4125 51.1865 44.2393 51.3848 44.0297 51.5625C43.8246 51.7357 43.5785 51.8747 43.2914 51.9795C43.0089 52.0843 42.6739 52.1367 42.2865 52.1367ZM42.7377 50.8311C43.4258 50.8311 43.9112 50.6328 44.1937 50.2363C44.4763 49.8398 44.6221 49.2451 44.6312 48.4521V48.2402C44.6312 47.3926 44.4945 46.7432 44.2211 46.292C43.9477 45.8363 43.4486 45.6084 42.724 45.6084C42.1452 45.6084 41.7032 45.8431 41.3979 46.3125C41.0971 46.7773 40.9467 47.4268 40.9467 48.2607C40.9467 49.0947 41.0971 49.7327 41.3979 50.1748C41.7032 50.6123 42.1498 50.8311 42.7377 50.8311ZM51.853 44.2891C52.81 44.2891 53.5324 44.501 54.02 44.9248C54.5122 45.3486 54.7583 46.0094 54.7583 46.9072V52H53.6167L53.3091 50.9268H53.2544C53.0402 51.2002 52.8192 51.4258 52.5913 51.6035C52.3634 51.7812 52.0991 51.9134 51.7983 52C51.5021 52.0911 51.1398 52.1367 50.7114 52.1367C50.2602 52.1367 49.8569 52.0547 49.5014 51.8906C49.146 51.722 48.8657 51.4668 48.6606 51.125C48.4555 50.7832 48.353 50.3503 48.353 49.8262C48.353 49.0469 48.6424 48.4613 49.2212 48.0693C49.8045 47.6774 50.6841 47.4609 51.8598 47.4199L53.1723 47.3721V46.9756C53.1723 46.4515 53.0493 46.0778 52.8032 45.8545C52.5617 45.6312 52.2199 45.5195 51.7778 45.5195C51.3996 45.5195 51.0327 45.5742 50.6772 45.6836C50.3218 45.793 49.9754 45.9274 49.6382 46.0869L49.1186 44.9521C49.4878 44.7562 49.907 44.5967 50.3764 44.4736C50.8504 44.3506 51.3426 44.2891 51.853 44.2891ZM53.1655 48.3838L52.188 48.418C51.3859 48.4453 50.8231 48.582 50.4995 48.8281C50.1759 49.0742 50.0141 49.4115 50.0141 49.8398C50.0141 50.2135 50.1258 50.487 50.3491 50.6602C50.5724 50.8288 50.8664 50.9131 51.2309 50.9131C51.7869 50.9131 52.2472 50.7559 52.6118 50.4414C52.9809 50.1224 53.1655 49.6553 53.1655 49.04V48.3838ZM56.2857 44.4326H58.0357L59.5875 48.7529C59.6558 48.9489 59.7173 49.1426 59.772 49.334C59.8313 49.5208 59.8814 49.7054 59.9224 49.8877C59.968 50.07 60.0045 50.2523 60.0318 50.4346H60.0728C60.1184 50.1976 60.1822 49.9333 60.2642 49.6416C60.3508 49.3454 60.4465 49.0492 60.5513 48.7529L62.0416 44.4326H63.7711L60.524 53.0391C60.3371 53.5312 60.107 53.9505 59.8336 54.2969C59.5647 54.6478 59.2457 54.9121 58.8765 55.0898C58.5074 55.2721 58.0858 55.3633 57.6119 55.3633C57.384 55.3633 57.1858 55.3496 57.0171 55.3223C56.8485 55.2995 56.705 55.2744 56.5865 55.2471V53.9619C56.6822 53.9847 56.803 54.0052 56.9488 54.0234C57.0946 54.0417 57.245 54.0508 57.4 54.0508C57.6871 54.0508 57.9354 53.9938 58.1451 53.8799C58.3547 53.766 58.5324 53.6042 58.6783 53.3945C58.8241 53.1895 58.9449 52.9548 59.0406 52.6904L59.3072 51.9795L56.2857 44.4326ZM65.1071 51.1523C65.1071 50.7786 65.2028 50.5166 65.3942 50.3662C65.5901 50.2113 65.8271 50.1338 66.1051 50.1338C66.3831 50.1338 66.6201 50.2113 66.8161 50.3662C67.0166 50.5166 67.1168 50.7786 67.1168 51.1523C67.1168 51.5169 67.0166 51.7812 66.8161 51.9453C66.6201 52.1048 66.3831 52.1846 66.1051 52.1846C65.8271 52.1846 65.5901 52.1048 65.3942 51.9453C65.2028 51.7812 65.1071 51.5169 65.1071 51.1523ZM65.1071 45.3008C65.1071 44.9225 65.2028 44.6559 65.3942 44.501C65.5901 44.346 65.8271 44.2686 66.1051 44.2686C66.3831 44.2686 66.6201 44.346 66.8161 44.501C67.0166 44.6559 67.1168 44.9225 67.1168 45.3008C67.1168 45.6608 67.0166 45.9229 66.8161 46.0869C66.6201 46.2464 66.3831 46.3262 66.1051 46.3262C65.8271 46.3262 65.5901 46.2464 65.3942 46.0869C65.2028 45.9229 65.1071 45.6608 65.1071 45.3008Z" fill="#335E74"/>
<path d="M7.27832 83.2793C7.27832 83.8717 7.13249 84.3822 6.84082 84.8105C6.55371 85.2389 6.139 85.5671 5.59668 85.7949C5.05892 86.0228 4.41634 86.1367 3.66895 86.1367C3.30436 86.1367 2.95573 86.1162 2.62305 86.0752C2.29036 86.0342 1.97591 85.9749 1.67969 85.8975C1.38802 85.8154 1.12142 85.7174 0.879883 85.6035V84.0586C1.28548 84.2363 1.73893 84.3981 2.24023 84.5439C2.74154 84.6852 3.25195 84.7559 3.77148 84.7559C4.19531 84.7559 4.54622 84.7012 4.82422 84.5918C5.10677 84.4779 5.31641 84.3184 5.45312 84.1133C5.58984 83.9036 5.6582 83.6598 5.6582 83.3818C5.6582 83.0856 5.57845 82.835 5.41895 82.6299C5.25944 82.4248 5.0179 82.238 4.69434 82.0693C4.37533 81.8962 3.97428 81.7116 3.49121 81.5156C3.16309 81.3835 2.84863 81.2331 2.54785 81.0645C2.25163 80.8958 1.9873 80.6976 1.75488 80.4697C1.52246 80.2419 1.33789 79.973 1.20117 79.6631C1.06901 79.3486 1.00293 78.9795 1.00293 78.5557C1.00293 77.9906 1.13737 77.5075 1.40625 77.1064C1.67969 76.7054 2.0625 76.3978 2.55469 76.1836C3.05143 75.9694 3.63021 75.8623 4.29102 75.8623C4.8151 75.8623 5.30729 75.917 5.76758 76.0264C6.23242 76.1357 6.68815 76.2907 7.13477 76.4912L6.61523 77.8105C6.20508 77.6419 5.80632 77.5075 5.41895 77.4072C5.03613 77.307 4.64421 77.2568 4.24316 77.2568C3.89681 77.2568 3.60286 77.3092 3.36133 77.4141C3.11979 77.5189 2.93522 77.667 2.80762 77.8584C2.68457 78.0452 2.62305 78.2686 2.62305 78.5283C2.62305 78.82 2.69368 79.0661 2.83496 79.2666C2.98079 79.4626 3.2041 79.6426 3.50488 79.8066C3.81022 79.9707 4.20215 80.153 4.68066 80.3535C5.2321 80.5814 5.69922 80.8206 6.08203 81.0713C6.4694 81.3219 6.76562 81.6227 6.9707 81.9736C7.17578 82.32 7.27832 82.7552 7.27832 83.2793ZM16.0587 78.4326V86H14.794L14.5753 84.9814H14.4864C14.3269 85.2412 14.1241 85.4577 13.878 85.6309C13.6319 85.7995 13.3585 85.9248 13.0577 86.0068C12.7569 86.0934 12.4402 86.1367 12.1075 86.1367C11.5378 86.1367 11.0502 86.041 10.6446 85.8496C10.2436 85.6536 9.93595 85.3529 9.72176 84.9473C9.50757 84.5417 9.40047 84.0176 9.40047 83.375V78.4326H11.0138V83.0742C11.0138 83.6621 11.1322 84.1019 11.3692 84.3936C11.6108 84.6852 11.9845 84.8311 12.4903 84.8311C12.9779 84.8311 13.3653 84.7308 13.6524 84.5303C13.9395 84.3298 14.1423 84.0335 14.2608 83.6416C14.3839 83.2497 14.4454 82.7689 14.4454 82.1992V78.4326H16.0587ZM22.7267 78.2891C23.5789 78.2891 24.242 78.5101 24.716 78.9521C25.1945 79.3896 25.4338 80.0938 25.4338 81.0645V86H23.8273V81.3652C23.8273 80.7773 23.7065 80.3376 23.465 80.0459C23.2235 79.7497 22.8498 79.6016 22.3439 79.6016C21.6102 79.6016 21.0998 79.8271 20.8127 80.2783C20.5301 80.7295 20.3888 81.3835 20.3888 82.2402V86H18.7824V78.4326H20.0334L20.2589 79.458H20.3478C20.5119 79.1937 20.7147 78.9772 20.9562 78.8086C21.2023 78.6354 21.4757 78.5055 21.7765 78.4189C22.0819 78.3324 22.3986 78.2891 22.7267 78.2891ZM30.6457 86.1367C29.7434 86.1367 29.0188 85.8086 28.4719 85.1523C27.9296 84.4915 27.6584 83.5186 27.6584 82.2334C27.6584 80.9346 27.9342 79.9525 28.4856 79.2871C29.0416 78.6217 29.773 78.2891 30.6799 78.2891C31.0627 78.2891 31.3977 78.3415 31.6848 78.4463C31.9719 78.5465 32.218 78.6833 32.4231 78.8564C32.6327 79.0296 32.8105 79.2233 32.9563 79.4375H33.0315C33.0087 79.2962 32.9814 79.0934 32.9495 78.8291C32.9221 78.5602 32.9084 78.3118 32.9084 78.084V75.3633H34.5217V86H33.2639L32.9768 84.9678H32.9084C32.7717 85.1865 32.5985 85.3848 32.3889 85.5625C32.1838 85.7357 31.9377 85.8747 31.6506 85.9795C31.3681 86.0843 31.0331 86.1367 30.6457 86.1367ZM31.0969 84.8311C31.7851 84.8311 32.2704 84.6328 32.553 84.2363C32.8355 83.8398 32.9814 83.2451 32.9905 82.4521V82.2402C32.9905 81.3926 32.8538 80.7432 32.5803 80.292C32.3069 79.8363 31.8079 79.6084 31.0832 79.6084C30.5045 79.6084 30.0624 79.8431 29.7571 80.3125C29.4563 80.7773 29.3059 81.4268 29.3059 82.2607C29.3059 83.0947 29.4563 83.7327 29.7571 84.1748C30.0624 84.6123 30.509 84.8311 31.0969 84.8311ZM40.2122 78.2891C41.1693 78.2891 41.8916 78.501 42.3792 78.9248C42.8714 79.3486 43.1175 80.0094 43.1175 80.9072V86H41.9759L41.6683 84.9268H41.6136C41.3994 85.2002 41.1784 85.4258 40.9505 85.6035C40.7226 85.7812 40.4583 85.9134 40.1575 86C39.8613 86.0911 39.499 86.1367 39.0706 86.1367C38.6195 86.1367 38.2161 86.0547 37.8607 85.8906C37.5052 85.722 37.2249 85.4668 37.0198 85.125C36.8148 84.7832 36.7122 84.3503 36.7122 83.8262C36.7122 83.0469 37.0016 82.4613 37.5804 82.0693C38.1637 81.6774 39.0433 81.4609 40.2191 81.4199L41.5316 81.3721V80.9756C41.5316 80.4515 41.4085 80.0778 41.1624 79.8545C40.9209 79.6312 40.5791 79.5195 40.137 79.5195C39.7588 79.5195 39.3919 79.5742 39.0364 79.6836C38.681 79.793 38.3346 79.9274 37.9974 80.0869L37.4779 78.9521C37.847 78.7562 38.2663 78.5967 38.7357 78.4736C39.2096 78.3506 39.7018 78.2891 40.2122 78.2891ZM41.5247 82.3838L40.5472 82.418C39.7451 82.4453 39.1823 82.582 38.8587 82.8281C38.5351 83.0742 38.3734 83.4115 38.3734 83.8398C38.3734 84.2135 38.485 84.487 38.7083 84.6602C38.9316 84.8288 39.2256 84.9131 39.5902 84.9131C40.1461 84.9131 40.6064 84.7559 40.971 84.4414C41.3402 84.1224 41.5247 83.6553 41.5247 83.04V82.3838ZM44.6449 78.4326H46.3949L47.9467 82.7529C48.015 82.9489 48.0766 83.1426 48.1312 83.334C48.1905 83.5208 48.2406 83.7054 48.2816 83.8877C48.3272 84.07 48.3637 84.2523 48.391 84.4346H48.432C48.4776 84.1976 48.5414 83.9333 48.6234 83.6416C48.71 83.3454 48.8057 83.0492 48.9105 82.7529L50.4008 78.4326H52.1303L48.8832 87.0391C48.6964 87.5312 48.4662 87.9505 48.1928 88.2969C47.9239 88.6478 47.6049 88.9121 47.2357 89.0898C46.8666 89.2721 46.4451 89.3633 45.9711 89.3633C45.7432 89.3633 45.545 89.3496 45.3764 89.3223C45.2077 89.2995 45.0642 89.2744 44.9457 89.2471V87.9619C45.0414 87.9847 45.1622 88.0052 45.308 88.0234C45.4538 88.0417 45.6042 88.0508 45.7592 88.0508C46.0463 88.0508 46.2947 87.9938 46.5043 87.8799C46.7139 87.766 46.8917 87.6042 47.0375 87.3945C47.1833 87.1895 47.3041 86.9548 47.3998 86.6904L47.6664 85.9795L44.6449 78.4326ZM65.6364 85.1523C65.6364 84.7786 65.7321 84.5166 65.9236 84.3662C66.1195 84.2113 66.3565 84.1338 66.6345 84.1338C66.9125 84.1338 67.1495 84.2113 67.3454 84.3662C67.5459 84.5166 67.6462 84.7786 67.6462 85.1523C67.6462 85.5169 67.5459 85.7812 67.3454 85.9453C67.1495 86.1048 66.9125 86.1846 66.6345 86.1846C66.3565 86.1846 66.1195 86.1048 65.9236 85.9453C65.7321 85.7812 65.6364 85.5169 65.6364 85.1523ZM65.6364 79.3008C65.6364 78.9225 65.7321 78.6559 65.9236 78.501C66.1195 78.346 66.3565 78.2686 66.6345 78.2686C66.9125 78.2686 67.1495 78.346 67.3454 78.501C67.5459 78.6559 67.6462 78.9225 67.6462 79.3008C67.6462 79.6608 67.5459 79.9229 67.3454 80.0869C67.1495 80.2464 66.9125 80.3262 66.6345 80.3262C66.3565 80.3262 66.1195 80.2464 65.9236 80.0869C65.7321 79.9229 65.6364 79.6608 65.6364 79.3008Z" fill="#335E74"/>
</svg>
